<?xml version="1.0" encoding="UTF-8"?>
<svg xmlns="http://www.w3.org/2000/svg" xmlns:xlink="http://www.w3.org/1999/xlink" width="20px" height="20px" viewBox="0 0 20 20" version="1.1">
<g id="surface1">
<path style="fill:none;stroke-width:2;stroke-linecap:round;stroke-linejoin:round;stroke:rgb(100%,100%,100%);stroke-opacity:1;stroke-miterlimit:4;" d="M 12 6 C 10.2 3.904687 7.195312 3.253125 4.940625 5.175 C 2.685937 7.096875 2.367187 10.307812 4.139062 12.576562 C 5.610937 14.465625 10.064062 18.45 11.526562 19.739062 C 11.685937 19.879687 11.770312 19.954687 11.864062 19.982812 C 11.948437 20.00625 12.0375 20.00625 12.121875 19.982812 C 12.215625 19.954687 12.3 19.879687 12.464062 19.739062 C 13.921875 18.45 18.379687 14.465625 19.851562 12.576562 C 21.61875 10.307812 21.342187 7.073437 19.05 5.175 C 16.753125 3.276562 13.8 3.904687 12 6 Z M 12 6 " transform="matrix(0.833333,0,0,0.833333,0,0)"/>
</g>
</svg>
