<?xml version="1.0" encoding="UTF-8"?>
<svg xmlns="http://www.w3.org/2000/svg" xmlns:xlink="http://www.w3.org/1999/xlink" width="20px" height="20px" viewBox="0 0 20 20" version="1.1">
<g id="surface1">
<path style=" stroke:none;fill-rule:evenodd;fill:rgb(100%,100%,100%);fill-opacity:1;" d="M 14.476562 17.457031 L 5.539062 17.457031 C 5.050781 17.457031 4.636719 17.09375 4.554688 16.601562 L 3.359375 9.277344 L 16.820312 9.277344 L 15.460938 16.625 C 15.371094 17.105469 14.957031 17.457031 14.476562 17.457031 Z M 17 7.234375 L 13.472656 1.011719 C 13.199219 0.527344 12.59375 0.359375 12.117188 0.636719 C 11.636719 0.917969 11.46875 1.542969 11.746094 2.03125 L 14.691406 7.234375 L 5.308594 7.234375 L 8.257812 2.035156 C 8.53125 1.550781 8.371094 0.929688 7.898438 0.644531 L 7.886719 0.640625 C 7.410156 0.355469 6.796875 0.519531 6.523438 1.007812 L 3 7.234375 L 1 7.234375 C 0.445312 7.234375 0 7.691406 0 8.257812 C 0 8.820312 0.445312 9.277344 1 9.277344 L 1.332031 9.277344 L 2.722656 17.792969 C 2.882812 18.777344 3.714844 19.5 4.695312 19.5 L 15.304688 19.5 C 16.28125 19.5 17.117188 18.777344 17.277344 17.792969 L 18.664062 9.277344 L 19 9.277344 C 19.550781 9.277344 20 8.820312 20 8.257812 C 20 7.691406 19.550781 7.234375 19 7.234375 Z M 17 7.234375 "/>
</g>
</svg>
